<?xml version="1.0" encoding="iso-8859-1"?>
<!-- Generator: Adobe Illustrator 16.0.0, SVG Export Plug-In . SVG Version: 6.00 Build 0)  -->
<!DOCTYPE svg PUBLIC "-//W3C//DTD SVG 1.1//EN" "http://www.w3.org/Graphics/SVG/1.1/DTD/svg11.dtd">
<svg version="1.1" id="Capa_1" xmlns="http://www.w3.org/2000/svg" xmlns:xlink="http://www.w3.org/1999/xlink" x="0px" y="0px"
	 width="31px" height="31px" viewBox="0 0 31 31" style="enable-background:new 0 0 31 31;" xml:space="preserve">
<g>
	<path d="M13.916,14.824c0,0.554-0.423,0.91-1.137,0.91h-0.562v-1.747c0.104-0.019,0.301-0.047,0.647-0.047
		C13.521,13.951,13.916,14.242,13.916,14.824z M30.999,15.5c0,1.202-0.47,2.333-1.317,3.182l-1.904,1.904v2.691
		c0,2.479-2.02,4.5-4.5,4.5h-2.691l-1.902,1.904C17.833,30.531,16.703,31,15.5,31s-2.333-0.469-3.184-1.32l-1.901-1.9H7.723
		c-1.203,0-2.332-0.469-3.183-1.317c-0.851-0.853-1.317-1.979-1.317-3.183v-2.694l-1.904-1.901c-0.85-0.851-1.317-1.98-1.317-3.183
		s0.47-2.333,1.317-3.182l1.904-1.903V7.725c0-2.481,2.02-4.5,4.5-4.5h2.691l1.904-1.905C13.167,0.47,14.296,0,15.5,0
		s2.333,0.469,3.184,1.32l1.901,1.901h2.692c1.201,0,2.332,0.468,3.182,1.317c0.852,0.852,1.318,1.981,1.318,3.183v2.692
		l1.904,1.904C30.529,13.167,30.999,14.297,30.999,15.5z M9.723,12.928H5.857v6.324h1.436v-2.543h2.271v-1.164H7.293V14.1h2.432
		v-1.173L9.723,12.928L9.723,12.928z M15.576,19.252c-0.122-0.244-0.318-1.068-0.516-1.782c-0.16-0.581-0.403-1.005-0.846-1.183
		V16.26c0.544-0.197,1.117-0.75,1.117-1.558c0-0.582-0.207-1.023-0.582-1.323c-0.45-0.356-1.107-0.498-2.046-0.498
		c-0.761,0-1.445,0.057-1.905,0.132v6.239h1.417v-2.486h0.433c0.582,0.01,0.854,0.226,1.022,1.015
		c0.188,0.778,0.338,1.295,0.44,1.473L15.576,19.252L15.576,19.252z M20.396,18.08h-2.602v-1.502h2.328v-1.164h-2.328V14.1h2.471
		v-1.173H16.36v6.324h4.036V18.08L20.396,18.08z M25.404,18.08h-2.6v-1.502h2.327v-1.164h-2.327V14.1h2.469v-1.173H21.37v6.324
		h4.034V18.08L25.404,18.08z"/>
</g>
<g>
</g>
<g>
</g>
<g>
</g>
<g>
</g>
<g>
</g>
<g>
</g>
<g>
</g>
<g>
</g>
<g>
</g>
<g>
</g>
<g>
</g>
<g>
</g>
<g>
</g>
<g>
</g>
<g>
</g>
</svg>